<svg xmlns="http://www.w3.org/2000/svg" xmlns:xlink="http://www.w3.org/1999/xlink" width="2000" zoomAndPan="magnify" viewBox="0 0 1500 1499.999933" height="2000" preserveAspectRatio="xMidYMid meet" version="1.0"><defs><clipPath id="1eb963bf19"><path d="M 0.199219 470 L 268.46875 470 L 268.46875 939.152344 L 0.199219 939.152344 Z M 0.199219 470 " clip-rule="nonzero"/></clipPath><clipPath id="24ecd7bf11"><path d="M 27.1875 470 L 241.660156 470 C 256.464844 470 268.46875 482.003906 268.46875 496.808594 L 268.46875 912.34375 C 268.46875 927.148438 256.464844 939.152344 241.660156 939.152344 L 27.1875 939.152344 C 12.382812 939.152344 0.378906 927.148438 0.378906 912.34375 L 0.378906 496.808594 C 0.378906 482.003906 12.382812 470 27.1875 470 Z M 27.1875 470 " clip-rule="nonzero"/></clipPath><clipPath id="984378cddb"><path d="M 0.199219 0 L 268.46875 0 L 268.46875 469.152344 L 0.199219 469.152344 Z M 0.199219 0 " clip-rule="nonzero"/></clipPath><clipPath id="a3e9a6e81a"><path d="M 27.1875 0 L 241.660156 0 C 256.464844 0 268.46875 12.003906 268.46875 26.808594 L 268.46875 442.34375 C 268.46875 457.148438 256.464844 469.152344 241.660156 469.152344 L 27.1875 469.152344 C 12.382812 469.152344 0.378906 457.148438 0.378906 442.34375 L 0.378906 26.808594 C 0.378906 12.003906 12.382812 0 27.1875 0 Z M 27.1875 0 " clip-rule="nonzero"/></clipPath><clipPath id="5fe57395da"><rect x="0" width="269" y="0" height="470"/></clipPath><clipPath id="86a4d54faf"><path d="M 375 201 L 643.789062 201 L 643.789062 939.152344 L 375 939.152344 Z M 375 201 " clip-rule="nonzero"/></clipPath><clipPath id="c619d09e31"><path d="M 402.511719 201.914062 L 616.980469 201.914062 C 631.785156 201.914062 643.789062 213.914062 643.789062 228.722656 L 643.789062 912.34375 C 643.789062 927.148438 631.785156 939.152344 616.980469 939.152344 L 402.511719 939.152344 C 387.703125 939.152344 375.703125 927.148438 375.703125 912.34375 L 375.703125 228.722656 C 375.703125 213.914062 387.703125 201.914062 402.511719 201.914062 Z M 402.511719 201.914062 " clip-rule="nonzero"/></clipPath><clipPath id="ec4c94d3a6"><path d="M 0.558594 0.679688 L 268.789062 0.679688 L 268.789062 738.152344 L 0.558594 738.152344 Z M 0.558594 0.679688 " clip-rule="nonzero"/></clipPath><clipPath id="566e9cd2f4"><path d="M 27.511719 0.914062 L 241.980469 0.914062 C 256.785156 0.914062 268.789062 12.914062 268.789062 27.722656 L 268.789062 711.34375 C 268.789062 726.148438 256.785156 738.152344 241.980469 738.152344 L 27.511719 738.152344 C 12.703125 738.152344 0.703125 726.148438 0.703125 711.34375 L 0.703125 27.722656 C 0.703125 12.914062 12.703125 0.914062 27.511719 0.914062 Z M 27.511719 0.914062 " clip-rule="nonzero"/></clipPath><clipPath id="232d6def25"><rect x="0" width="269" y="0" height="739"/></clipPath><clipPath id="fd2e640c56"><path d="M 751 0.800781 L 1019.113281 0.800781 L 1019.113281 939.152344 L 751 939.152344 Z M 751 0.800781 " clip-rule="nonzero"/></clipPath><clipPath id="7bc9436eeb"><path d="M 777.832031 0.847656 L 992.300781 0.847656 C 1007.109375 0.847656 1019.113281 12.851562 1019.113281 27.65625 L 1019.113281 912.34375 C 1019.113281 927.148438 1007.109375 939.152344 992.300781 939.152344 L 777.832031 939.152344 C 763.027344 939.152344 751.023438 927.148438 751.023438 912.34375 L 751.023438 27.65625 C 751.023438 12.851562 763.027344 0.847656 777.832031 0.847656 Z M 777.832031 0.847656 " clip-rule="nonzero"/></clipPath><clipPath id="8ec23d4031"><path d="M 0 0.800781 L 268.113281 0.800781 L 268.113281 939.152344 L 0 939.152344 Z M 0 0.800781 " clip-rule="nonzero"/></clipPath><clipPath id="97d6b1dfad"><path d="M 26.832031 0.847656 L 241.300781 0.847656 C 256.109375 0.847656 268.113281 12.851562 268.113281 27.65625 L 268.113281 912.34375 C 268.113281 927.148438 256.109375 939.152344 241.300781 939.152344 L 26.832031 939.152344 C 12.027344 939.152344 0.0234375 927.148438 0.0234375 912.34375 L 0.0234375 27.65625 C 0.0234375 12.851562 12.027344 0.847656 26.832031 0.847656 Z M 26.832031 0.847656 " clip-rule="nonzero"/></clipPath><clipPath id="749b4f002f"><rect x="0" width="269" y="0" height="940"/></clipPath><clipPath id="33861e158b"><path d="M 510 188.527344 L 1245.558594 188.527344 L 1245.558594 751.511719 L 510 751.511719 Z M 510 188.527344 " clip-rule="nonzero"/></clipPath><clipPath id="3c7ab4e009"><rect x="0" width="1246" y="0" height="940"/></clipPath></defs><g transform="matrix(1, 0, 0, 1, 127, 280)"><g clip-path="url(#3c7ab4e009)"><g clip-path="url(#1eb963bf19)"><g clip-path="url(#24ecd7bf11)"><g transform="matrix(1, 0, 0, 1, 0, 470)"><g clip-path="url(#5fe57395da)"><g clip-path="url(#984378cddb)"><g clip-path="url(#a3e9a6e81a)"><path fill="#002f59" d="M 0.378906 0 L 268.46875 0 L 268.46875 469.152344 L 0.378906 469.152344 Z M 0.378906 0 " fill-opacity="1" fill-rule="nonzero"/></g></g></g></g></g></g><g clip-path="url(#86a4d54faf)"><g clip-path="url(#c619d09e31)"><g transform="matrix(1, 0, 0, 1, 375, 201)"><g clip-path="url(#232d6def25)"><g clip-path="url(#ec4c94d3a6)"><g clip-path="url(#566e9cd2f4)"><path fill="#1a6b5c" d="M 0.703125 0.914062 L 268.789062 0.914062 L 268.789062 738.152344 L 0.703125 738.152344 Z M 0.703125 0.914062 " fill-opacity="1" fill-rule="nonzero"/></g></g></g></g></g></g><g clip-path="url(#fd2e640c56)"><g clip-path="url(#7bc9436eeb)"><g transform="matrix(1, 0, 0, 1, 751, 0.000000000000113687)"><g clip-path="url(#749b4f002f)"><g clip-path="url(#8ec23d4031)"><g clip-path="url(#97d6b1dfad)"><path fill="#6ec6c8" d="M 0.0234375 0.847656 L 268.113281 0.847656 L 268.113281 939.152344 L 0.0234375 939.152344 Z M 0.0234375 0.847656 " fill-opacity="1" fill-rule="nonzero"/></g></g></g></g></g></g><g clip-path="url(#33861e158b)"><path fill="#8cf2d1" d="M 1245.332031 284.535156 L 1149.324219 188.527344 L 778.394531 557.277344 L 606.023438 387.085938 L 510.015625 483.089844 C 599.476562 572.550781 688.9375 662.007812 778.394531 751.46875 Z M 1245.332031 284.535156 " fill-opacity="1" fill-rule="evenodd"/></g></g></g></svg>